<svg width="989" height="308" viewBox="0 0 989 308" fill="none" xmlns="http://www.w3.org/2000/svg">
<g filter="url(#filter0_d_267_72)">
<path d="M10.3596 52.9594C13.3833 34.454 28.576 20.358 47.2558 18.7266L130 11.5L703.47 1.06569C779.024 -0.309017 854.56 4.65279 929.284 15.899L938.475 17.2822C955.401 19.8296 969.071 32.4256 972.991 49.0871V49.0871C980.638 81.5866 984.5 114.862 984.5 148.249V236.575C984.5 243.097 982.944 249.526 979.961 255.326L977.435 260.237C970.678 273.377 957.373 281.864 942.609 282.454L503 300L54.9452 282.997C32.9224 282.161 15.5 264.065 15.5 242.026V207.5L5.59554 120.737C3.87342 105.651 4.24184 90.3999 6.69037 75.4149L10.3596 52.9594Z" fill="#274416"/>
</g>
<defs>
<filter id="filter0_d_267_72" x="0.530884" y="0.841934" width="987.969" height="307.158" filterUnits="userSpaceOnUse" color-interpolation-filters="sRGB">
<feFlood flood-opacity="0" result="BackgroundImageFix"/>
<feColorMatrix in="SourceAlpha" type="matrix" values="0 0 0 0 0 0 0 0 0 0 0 0 0 0 0 0 0 0 127 0" result="hardAlpha"/>
<feOffset dy="4"/>
<feGaussianBlur stdDeviation="2"/>
<feComposite in2="hardAlpha" operator="out"/>
<feColorMatrix type="matrix" values="0 0 0 0 0.984314 0 0 0 0 0.768627 0 0 0 0 0.00784314 0 0 0 1 0"/>
<feBlend mode="normal" in2="BackgroundImageFix" result="effect1_dropShadow_267_72"/>
<feBlend mode="normal" in="SourceGraphic" in2="effect1_dropShadow_267_72" result="shape"/>
</filter>
</defs>
</svg>
