<svg width="981" height="300" viewBox="0 0 981 300" fill="none" xmlns="http://www.w3.org/2000/svg">
<path d="M6.35957 52.9594C9.38334 34.454 24.576 20.358 43.2558 18.7266L126 11.5L699.47 1.06569C775.024 -0.309017 850.56 4.65279 925.284 15.899L934.475 17.2822C951.401 19.8296 965.071 32.4256 968.991 49.0871C976.638 81.5866 980.5 114.862 980.5 148.249V236.575C980.5 243.097 978.944 249.526 975.961 255.326L973.435 260.237C966.678 273.377 953.373 281.864 938.609 282.454L499 300L50.9452 282.997C28.9224 282.161 11.5 264.065 11.5 242.026V207.5L1.59554 120.737C-0.126579 105.651 0.241843 90.3999 2.69037 75.4149L6.35957 52.9594Z" fill="#274416"/>
</svg>
